PathFileType	4	(X/Y/Z)	..\data\2014014\dynamic\2014014_C4_05.trc
DataRate	CameraRate	NumFrames	NumMarkers	Units	OrigDataRate	OrigDataStartFrame	OrigNumFrames
100.000000	100.000000	4	52	mm	100.000000	157	180
Frame#	Time	L_IAS			L_IPS			R_IPS			R_IAS			L_FTC			L_FLE			L_FME			L_FAX			L_TTC			L_FAL			L_TAM			L_FCC			L_FM1			L_FM2			L_FM5			R_FTC			R_FLE			R_FME			R_FAX			R_TTC			R_FAL			R_TAM			R_FCC			R_FM1			R_FM2			R_FM5			CV7			TV10			SXS			SJN			L_SIA			L_SRS			L_SAA			L_SAE			L_HLE			L_HME			L_UOA			L_RSP			L_UHE			L_HM2			L_HM5			R_SIA			R_SRS			R_SAA			R_SAE			R_HLE			R_HME			R_UOA			R_RSP			R_UHE			R_HM2			R_HM5			
		X1	Y1	Z1	X2	Y2	Z2	X3	Y3	Z3	X4	Y4	Z4	X5	Y5	Z5	X6	Y6	Z6	X7	Y7	Z7	X8	Y8	Z8	X9	Y9	Z9	X10	Y10	Z10	X11	Y11	Z11	X12	Y12	Z12	X13	Y13	Z13	X14	Y14	Z14	X15	Y15	Z15	X16	Y16	Z16	X17	Y17	Z17	X18	Y18	Z18	X19	Y19	Z19	X20	Y20	Z20	X21	Y21	Z21	X22	Y22	Z22	X23	Y23	Z23	X24	Y24	Z24	X25	Y25	Z25	X26	Y26	Z26	X27	Y27	Z27	X28	Y28	Z28	X29	Y29	Z29	X30	Y30	Z30	X31	Y31	Z31	X32	Y32	Z32	X33	Y33	Z33	X34	Y34	Z34	X35	Y35	Z35	X36	Y36	Z36	X37	Y37	Z37	X38	Y38	Z38	X39	Y39	Z39	X40	Y40	Z40	X41	Y41	Z41	X42	Y42	Z42	X43	Y43	Z43	X44	Y44	Z44	X45	Y45	Z45	X46	Y46	Z46	X47	Y47	Z47	X48	Y48	Z48	X49	Y49	Z49	X50	Y50	Z50	X51	Y51	Z51	X52	Y52	Z52	

158	1.57	529.5713500976564	993.789978027344	104.8135681152345	318.3121337890626	1014.118835449219	180.9217376708985	312.6394653320312	1006.518859863281	284.1390991210939	515.1419677734376	995.2290039062502	358.6248168945314	444.6775512695314	897.8972778320315	38.84363937377936	381.3691101074219	496.4035644531251	106.7743911743165	374.5363464355469	489.9610290527345	243.1831359863282	353.6207885742188	435.6719665527345	105.3399276733399	421.1773681640626	418.5895080566407	158.3110351562501	310.8756408691407	64.49598693847658	137.6634521484376	330.4892883300781	94.27537536621095	234.7575988769532	255.3009948730469	19.52492904663086	191.2256011962891	455.8811340332032	13.76069355010987	231.6252441406251	473.8438415527345	31.33026695251466	174.2792205810548	419.6286926269532	14.06611061096192	113.1675415039063	463.1375122070313	895.749938964844	423.0842590332033	599.8400878906251	503.7080078125001	400.4162597656252	635.7868652343751	509.8372497558595	274.3418579101564	564.4280395507814	457.596893310547	400.3201293945314	633.7114868164064	434.332977294922	356.2360839843751	399.5650024414063	128.3123931884766	348.7901916503907	452.5118713378907	143.6111450195313	259.2871093750001	355.2530822753906	107.6272354125977	277.7554931640626	548.3770751953126	37.4505844116211	282.0546264648439	540.9222412109376	55.74142837524415	336.6450195312501	492.2068481445313	49.03876113891603	381.7474975585939	363.1095581054688	1534.282592773438	230.6298065185548	273.7166748046876	1285.850708007813	218.0464172363282	542.6129760742189	1260.198974609375	239.9454956054689	490.3111877441407	1442.34326171875	245.8814544677736	265.6483459472657	1316.656860351563	103.0214309692383	300.5173950195313	1460.41259765625	110.7443466186524	348.5030517578126	1460.25	50.22085189819342	399.235076904297	1457.511108398438	28.05519485473638	442.0327758789064	1121.155029296875	-68.71047973632808	385.6987304687501	1100.51513671875	5.609133243560839	399.959197998047	1088.994873046875	-51.58344650268551	584.8497314453126	900.6550292968752	11.75579071044929	532.6804199218751	881.1201782226565	-56.89651107788081	640.6196289062501	827.9382324218752	3.357602596283038	551.4636840820314	799.8222656250002	-56.94419097900385	242.3852844238282	1311.45703125	333.5375061035157	293.0706787109375	1454.324829101563	353.4444885253907	330.4873352050781	1439.320068359375	424.0364074707033	376.6125183105469	1437.047973632813	446.8092651367189	351.5974731445312	1099.355834960938	525.2383422851564	341.0860595703125	1085.42431640625	421.6895751953127	315.5864868164062	1080.520141601563	486.2380676269533	463.8988342285157	852.4830322265627	485.2682189941408	389.2536010742188	851.1218261718752	540.3872680664064	496.4417114257813	761.9924926757814	513.1506958007815	384.2824401855469	752.0612182617189	531.4056396484376	
159	1.58	539.8302612304689	992.0953369140627	105.0002593994142	329.0408630371094	1013.001159667969	181.5540466308594	323.2056579589844	1005.855285644531	284.7464599609376	525.8176879882814	994.375183105469	358.7971191406251	454.0639648437501	896.5640258789065	39.38175582885749	385.8534240722657	495.9362792968751	107.5162429809571	379.5842590332031	489.6052246093751	243.7817535400392	357.6172180175782	435.5384521484376	106.0214767456055	425.1349182128907	417.6558837890626	158.766815185547	311.0635986328126	64.84169006347658	138.1534271240235	331.3054809570312	94.51763916015626	235.1068420410157	255.4367218017578	19.91927528381348	191.7705078125001	456.0655212402345	13.73007106781006	231.5834197998048	473.9459228515626	31.20764541625977	174.1861267089845	419.6109008789064	14.02152824401856	113.1902008056641	474.4205627441407	895.5158691406252	423.6572570800783	611.7030029296876	503.0160522460939	398.7327575683595	646.7615966796876	509.4839782714845	272.8048706054689	578.2833251953126	455.0037841796876	398.7326049804689	648.8360595703126	434.970184326172	355.3638000488282	434.5452575683594	115.4441299438477	349.0000610351564	487.3289184570313	133.7337951660157	259.857391357422	392.5964660644532	92.08472442626955	277.715301513672	589.3192138671876	34.18473815917969	284.3316345214845	580.1252441406251	51.95550537109376	338.8023986816407	531.5847167968751	42.55271530151368	383.423553466797	374.0956726074219	1533.321411132813	231.2117919921876	284.9327087402344	1284.74267578125	217.4700927734376	553.3926391601564	1259.018676757813	240.5234527587892	501.1484375000001	1441.189697265625	246.7594146728517	277.3197021484376	1315.991088867188	102.2929763793946	311.9670104980469	1459.98876953125	110.6841201782227	360.3797607421876	1459.80322265625	50.43840789794928	411.237518310547	1457.130004882813	28.55371475219732	456.2330627441407	1121.351806640625	-68.81444549560543	398.9744873046876	1100.054077148438	4.648179054260304	413.6231994628907	1088.61181640625	-52.47747039794918	601.4564208984376	903.4882812500002	13.84882831573494	550.7052612304689	882.8499755859377	-55.3737182617187	658.7847900390626	831.828796386719	6.408945560455405	570.9273071289064	801.8535766601565	-54.81365203857416	252.3330688476563	1310.252685546875	332.4469604492189	303.3922424316406	1452.986938476563	353.1713256835939	340.2912292480469	1437.795043945313	423.9497070312502	386.3029785156251	1435.4580078125	447.0372009277345	359.0778198242188	1097.659912109375	524.6560058593751	349.8455505371094	1083.86474609375	420.6140441894533	323.8583679199219	1078.577880859375	485.3285217285158	472.0722045898438	850.7908325195315	485.1404724121095	396.5016479492188	849.2147216796877	539.0918579101564	504.1818542480469	760.2409057617189	513.3826904296877	391.7298889160157	750.1021728515626	529.4006958007814	
160	1.59	550.1676635742189	990.369323730469	105.3276748657228	339.7977294921876	1011.814453125	182.1501922607422	333.8311157226562	1005.023559570313	285.3597717285157	536.4473266601564	993.3421630859377	359.1132202148439	463.5419006347657	895.233825683594	39.93320846557624	390.5630187988282	495.4787597656251	108.2424621582032	384.8503417968751	489.2420654296876	244.3714904785157	361.8128967285157	435.4342041015626	106.7030105590821	429.2361755371095	416.7188720703126	159.2128295898438	311.2678833007813	65.21817016601564	138.6593170166016	332.1522521972656	94.79322052001955	235.4843750000001	255.6196594238282	20.384033203125	192.382553100586	456.2119445800782	13.69678211212159	231.5479888916017	474.0298156738282	31.07308578491212	174.1081848144532	419.5648498535157	13.99125194549561	113.2349700927735	485.4331970214844	894.9389648437502	424.2114257812502	622.6638793945314	501.8252563476564	396.8917541503908	657.0237426757814	508.626678466797	271.0905151367189	591.4475097656251	452.0866088867189	397.032196044922	663.1837768554689	435.3545532226564	354.480682373047	470.2017822265626	103.3623809814453	349.5299377441407	522.7205810546876	124.735107421875	260.8045043945314	430.9402160644532	77.36787414550783	278.0698242187501	630.3993530273439	32.18774795532227	286.9808959960939	619.4968872070314	49.31218338012697	341.3213500976564	571.2918090820314	37.13928985595704	385.4929199218752	385.1645507812501	1532.23681640625	231.8691406250001	296.2079772949219	1283.54150390625	217.0230255126954	564.2382812500001	1257.705322265625	241.2084045410157	512.0661010742189	1439.910888671875	247.7235870361329	289.0190734863282	1315.259643554688	101.7108993530274	323.5232849121094	1459.43701171875	110.7204971313477	372.3524780273438	1459.239501953125	50.75250244140631	423.3334350585939	1456.619262695313	29.15151214599615	470.2387084960939	1121.399169921875	-68.88478851318355	412.2162475585939	1099.476684570313	3.765844821929983	427.1306457519532	1088.155883789063	-53.30551147460934	617.7470703125001	906.167663574219	15.98185729980477	568.3466186523439	884.4315185546877	-53.76129150390619	676.5791015625001	835.584655761719	9.480782508850183	590.0178833007814	803.7827758789065	-52.60231781005854	262.4013977050781	1308.934936523438	331.4605102539064	313.8102111816406	1451.557006835938	353.0010986328126	350.1969299316406	1436.175537109375	423.9590759277345	396.0931091308594	1433.76611328125	447.3549804687502	366.7957763671875	1095.856689453125	524.0722656250001	358.7186584472656	1082.233032226563	419.6334838867189	332.28564453125	1076.515625	484.5205688476564	480.3131103515626	848.971374511719	484.9717712402345	403.9192504882813	847.2244873046877	537.8527221679689	512.013671875	758.3734130859376	513.542175292969	399.3320617675782	748.0720214843751	527.5070800781251	
161	1.6	560.5875244140626	988.6281738281252	105.7761001586915	350.5803527832032	1010.566223144531	182.7223358154298	344.5282592773438	1004.016479492188	285.9908752441407	547.0628662109376	992.1353149414065	359.5587463378907	473.1054687500001	893.9021606445315	40.48014831542975	395.4961547851564	495.0404357910157	108.9511642456055	390.3436279296876	488.8728942871095	244.9566497802736	366.2134704589844	435.3732910156251	107.3818130493165	433.4836425781251	415.7860107421876	159.6422729492188	311.4845581054688	65.63811492919923	139.1764373779297	333.0232849121094	95.10083007812501	235.898651123047	255.8577728271485	20.92659378051758	193.0732421875001	456.3190307617189	13.66637229919434	231.5223083496095	474.0960998535157	30.93333625793458	174.0467071533204	419.4855041503907	13.98469638824463	113.304054260254	496.2088317871094	894.0076293945315	424.7489013671877	632.7789306640626	500.1735229492189	394.8850097656252	666.6647338867189	507.3346557617189	269.1838989257814	603.9639892578126	448.9168090820314	395.2186279296877	676.7835693359376	435.5305175781251	353.5617065429689	506.3224182128907	92.33320617675783	350.4047241210939	558.4516601562501	116.8342361450196	262.136688232422	470.0208129882813	63.75377655029298	278.8519592285157	671.3405761718751	31.63262557983399	289.9909057617189	658.7904052734376	48.0055389404297	344.1824645996095	611.0866088867189	33.0246696472168	387.9575805664064	396.3128051757813	1531.038330078125	232.6062164306642	307.5223083496094	1282.266845703125	216.727035522461	575.1546630859376	1256.273681640625	241.9971618652345	523.0648803710939	1438.518188476563	248.7759857177736	300.7483520507813	1314.460205078125	101.2807693481446	335.1802673339844	1458.75439453125	110.8634567260743	384.410858154297	1458.563232421875	51.16763687133795	435.5120239257814	1455.985595703125	29.8519191741944	484.0368652343751	1121.301879882813	-68.91383361816402	425.4024963378907	1098.7900390625	2.97907352447515	440.4853515625001	1087.630981445313	-54.05223083496089	633.7125854492189	908.6745605468752	18.14686584472664	585.5906372070314	885.8562011718752	-52.06837844848627	693.9781494140626	839.1755981445315	12.5611753463746	608.7100830078126	805.5966796875002	-50.33014678955072	272.6178894042969	1307.509399414063	330.6024169921876	324.3294372558594	1450.044189453125	352.9476013183595	360.2136840820312	1434.473266601563	424.074920654297	405.9912109375001	1431.984985351563	447.7700805664064	374.7593078613281	1093.963623046875	523.5001831054689	367.7146911621094	1080.552001953125	418.7586669921877	340.8482360839844	1074.3828125	483.7959289550783	488.6228942871094	847.0400390625002	484.7528076171877	411.5187377929688	845.167663574219	536.6799926757814	519.94482421875	756.4043579101564	513.6079101562502	407.0947570800782	745.9888916015626	525.7451171875001	
